<svg id="Capa_1" data-name="Capa 1" xmlns="http://www.w3.org/2000/svg" xmlns:xlink="http://www.w3.org/1999/xlink" viewBox="0 0 340.14 318.08">
  <defs>
    <style>
      .cls-1 {
        opacity: 0.5;
      }

      .cls-2 {
        fill: url(#Degradado_sin_nombre_17);
      }

      .cls-3 {
        fill: url(#Degradado_sin_nombre_17-2);
      }

      .cls-4 {
        fill: url(#Degradado_sin_nombre_17-3);
      }

      .cls-5 {
        fill: url(#Degradado_sin_nombre_17-4);
      }

      .cls-6 {
        fill: url(#Degradado_sin_nombre_17-5);
      }

      .cls-7 {
        fill: url(#Degradado_sin_nombre_17-6);
      }

      .cls-8 {
        fill: url(#Degradado_sin_nombre_17-7);
      }

      .cls-9 {
        fill: url(#Degradado_sin_nombre_17-8);
      }

      .cls-10 {
        fill: url(#Degradado_sin_nombre_17-9);
      }

      .cls-11 {
        fill: url(#Degradado_sin_nombre_17-10);
      }
    </style>
    <linearGradient id="Degradado_sin_nombre_17" data-name="Degradado sin nombre 17" x1="384.94" y1="559.44" x2="193.74" y2="228.27" gradientUnits="userSpaceOnUse">
      <stop offset="0" stop-color="#356eb5"/>
      <stop offset="1" stop-color="#72abdd"/>
    </linearGradient>
    <linearGradient id="Degradado_sin_nombre_17-2" x1="400.89" y1="375.59" x2="366.53" y2="316.07" xlink:href="#Degradado_sin_nombre_17"/>
    <linearGradient id="Degradado_sin_nombre_17-3" x1="224.05" y1="337.89" x2="203.81" y2="302.83" xlink:href="#Degradado_sin_nombre_17"/>
    <linearGradient id="Degradado_sin_nombre_17-4" x1="270.08" y1="337.9" x2="249.82" y2="302.81" xlink:href="#Degradado_sin_nombre_17"/>
    <linearGradient id="Degradado_sin_nombre_17-5" x1="315.86" y1="337.9" x2="295.57" y2="302.76" xlink:href="#Degradado_sin_nombre_17"/>
    <linearGradient id="Degradado_sin_nombre_17-6" x1="224.02" y1="383.7" x2="203.83" y2="348.73" xlink:href="#Degradado_sin_nombre_17"/>
    <linearGradient id="Degradado_sin_nombre_17-7" x1="270.02" y1="383.71" x2="249.82" y2="348.72" xlink:href="#Degradado_sin_nombre_17"/>
    <linearGradient id="Degradado_sin_nombre_17-8" x1="373.93" y1="354.38" x2="351.62" y2="315.74" xlink:href="#Degradado_sin_nombre_17"/>
    <linearGradient id="Degradado_sin_nombre_17-9" x1="315.37" y1="465.43" x2="302.14" y2="442.52" xlink:href="#Degradado_sin_nombre_17"/>
    <linearGradient id="Degradado_sin_nombre_17-10" x1="174.93" y1="515.78" x2="150.87" y2="474.11" xlink:href="#Degradado_sin_nombre_17"/>
  </defs>
  <title>developer_user</title>
  <g class="cls-1">
    <g>
      <path class="cls-2" d="M452.06,248.09H166c-11.53,0-16.17,4.63-16.17,16.18q0,84.59,0,169.17c0,3.54,1.54,8.09-.72,10.35-2.08,2.08-6.58.55-10,.62-7.56.14-11.48,4-11.48,11.63q0,49.07,0,98.14c0,8.22,3.67,11.88,12,11.9q23.34.06,46.67,0c8.63,0,12.31-3.76,12.32-12.45,0-16.76.07-33.51-.05-50.27,0-2.78.76-3.63,3.56-3.59,9.84.15,19.68.06,29.52.06q17,0,33.92,0c1.59,0,3.48-.63,3.51,2.3.16,15.74-3,30.62-17,39.54-8.42,5.37-10.5,11.47-9.59,20.41.33,3.33,1.11,4.08,4.32,4.07,30.19-.12,60.38-.07,90.56-.07,11.44,0,22.88-.09,34.31.06,2.83,0,3.68-.83,3.52-3.59a114.49,114.49,0,0,1,0-11.57,3.87,3.87,0,0,0-2.38-4c-16.42-9.13-24.08-23.32-24.07-41.93,0-6.05-.5-5.2,4.94-5.21q49.28,0,98.55,0c10.74,0,15.57-4.86,15.57-15.58q0-110.31,0-220.63C467.7,252.94,462.8,248.09,452.06,248.09Zm-296,206.57q6.77,0,13.54,0c1.74,0,3.36.33,3.42,2.4s-1.49,2.57-3.27,2.56H163c-2.26,0-4.51,0-6.77,0-1.81,0-3.24-.48-3.17-2.61C153.1,455.12,154.42,454.66,156.07,454.66ZM163,555.9a5,5,0,0,1,0-10c3.1,0,4.71,2,5.05,5C167.71,554,166,555.94,163,555.9Zm25.42-18.53c0,2.83-.8,3.54-3.56,3.57-2.95,0-4-.71-3.79-3.76.26-4.51,0-9,.1-13.56.05-2-.43-2.84-2.63-2.82q-15.56.15-31.12,0c-2.19,0-2.69.9-2.65,2.85.09,4.39-.06,8.78.06,13.17.07,2.56-.1,4.17-3.5,4.13-3.16,0-3.73-1.17-3.69-4,.14-10.63.06-21.27.06-31.91s.09-21-.07-31.52c0-2.85.55-3.92,3.69-3.88,14.49.17,29,.14,43.49,0,2.68,0,3.63.55,3.61,3.45Q188.2,505.26,188.38,537.37Zm98.2,1.93c-.52-1.12.43-1.75.87-2.47,6.12-10,7.47-21.16,7.57-32.51,0-3.64,1-4.75,4.65-4.58,6.36.31,12.74.21,19.11,0,2.76-.07,3.66.75,3.6,3.56-.2,9.62.81,19.09,4.78,28,1.17,2.62,2.64,5.1,4.14,8ZM438,473.35q-118.09-.14-236.2,0c-2.68,0-3.37-.87-3.27-3.4.17-4.78.11-9.57,0-14.36-.12-7-4.2-11.05-11.25-11.14-2.79,0-5.6-.15-8.38,0-2.19.13-2.59-.76-2.65-2.76-.22-8.15-.29-8.14,7.69-8.14H308.81q63.65,0,127.28,0c6.16,0,5.14-.64,5.18,5.37.05,10.24-.07,20.48.07,30.72C441.37,472.26,441,473.35,438,473.35Zm-.67-66.27q-64.23-.1-128.47-.05t-128.46.08c-3.32,0-4.16-.82-4.15-4.15q.18-62.23,0-124.47c0-3,.58-4.05,3.87-4q128.66.15,257.32,0c3.18,0,3.94.87,3.93,4q-.15,62.44,0,124.88C441.38,406.69,440.16,407.08,437.29,407.08Z" transform="translate(-127.57 -248.09)"/>
      <path class="cls-3" d="M383.75,324.94c0-5.31.27-10.64-.09-15.93-.26-3.81,1.27-4,4.31-3.43,18.31,3.41,32.19,21.05,30.79,39.87-1.09,14.63-8.32,25.66-21.53,32.12S371.31,382.65,359,375c-3-1.86-2.91-3-.42-5.41,7.86-7.53,15.43-15.36,23.18-23a6.11,6.11,0,0,0,2.06-4.86C383.67,336.1,383.75,330.52,383.75,324.94Z" transform="translate(-127.57 -248.09)"/>
      <path class="cls-4" d="M198.68,320.34c0-4.12.1-8.24,0-12.36-.07-2.14.43-3.08,2.83-3,8.24.13,16.48.1,24.72,0,2.14,0,3.11.48,3.08,2.86-.12,8.38-.09,16.75,0,25.12,0,2-.53,2.85-2.69,2.82-8.37-.1-16.75-.12-25.12,0-2.45,0-2.86-1-2.79-3.07C198.77,328.58,198.68,324.46,198.68,320.34Z" transform="translate(-127.57 -248.09)"/>
      <path class="cls-5" d="M259.73,335.71c-4.12,0-8.24-.08-12.36,0-2.06.05-2.81-.69-2.8-2.76q.1-12.56,0-25.12c0-1.9.42-2.94,2.64-2.92,8.51.09,17,.07,25.52,0,1.9,0,2.54.66,2.52,2.56-.07,8.5-.09,17,0,25.52,0,2.12-.73,2.76-2.78,2.71C268.24,335.63,264,335.71,259.73,335.71Z" transform="translate(-127.57 -248.09)"/>
      <path class="cls-6" d="M321,320.46c0,4.12,0,8.24,0,12.36,0,1.87-.29,3-2.58,2.93-8.51-.1-17-.08-25.52,0-1.9,0-2.53-.63-2.51-2.52q.1-13,0-25.92c0-1.71.59-2.34,2.3-2.33q13,.07,25.92,0c2.07,0,2.39,1,2.37,2.74C321,312,321,316.2,321,320.46Z" transform="translate(-127.57 -248.09)"/>
      <path class="cls-7" d="M229.22,366.43c0,4.12-.09,8.23,0,12.34.07,2.06-.58,2.77-2.69,2.74q-12.75-.15-25.48,0c-2,0-2.44-.74-2.43-2.56q.12-12.74,0-25.48c0-1.86.51-2.54,2.45-2.52q12.74.14,25.48,0c2.13,0,2.73.72,2.67,2.75C229.13,357.94,229.22,362.19,229.22,366.43Z" transform="translate(-127.57 -248.09)"/>
      <path class="cls-8" d="M275.23,366.45c0,4.12-.1,8.24,0,12.35.07,2.1-.67,2.73-2.73,2.71q-12.54-.13-25.09,0c-1.89,0-2.91-.31-2.89-2.57.11-8.49.09-17,0-25.48,0-1.92.66-2.51,2.54-2.5,8.5.08,17,.1,25.49,0,2.14,0,2.72.73,2.66,2.77C275.14,358,275.23,362.2,275.23,366.45Z" transform="translate(-127.57 -248.09)"/>
      <path class="cls-9" d="M342.26,343.09a38.16,38.16,0,0,1,31.33-37.42c1.18-.2,3.51-1.74,3.68,1.14.11,1.94,1.2,4.34-2.47,5.13-23.4,5-33.41,29.17-20.43,49.4,2.26,3.52-.86,4.22-2.22,5.51-1.76,1.69-2.3-.81-3-1.73A36.81,36.81,0,0,1,342.26,343.09Z" transform="translate(-127.57 -248.09)"/>
      <path class="cls-10" d="M322,454a13.19,13.19,0,0,1-13.13,13.2A13.25,13.25,0,1,1,322,454Z" transform="translate(-127.57 -248.09)"/>
      <path class="cls-11" d="M162.78,513c-5.05,0-10.1,0-15.15,0-1.86,0-2.94-.2-2.92-2.53.11-10.36.09-20.73,0-31.09,0-2.17.92-2.68,2.88-2.67,10.23.06,20.46.09,30.69,0,2.36,0,2.85.89,2.83,3-.09,10.1-.13,20.2,0,30.3,0,2.63-.95,3.05-3.23,3C172.88,512.94,167.83,513,162.78,513Z" transform="translate(-127.57 -248.09)"/>
    </g>
  </g>
</svg>
