<svg id="Capa_1" data-name="Capa 1" xmlns="http://www.w3.org/2000/svg" xmlns:xlink="http://www.w3.org/1999/xlink" viewBox="0 0 309.08 468.96">
  <defs>
    <style>
      .cls-1 {
        opacity: 0.5;
      }

      .cls-2 {
        fill: url(#Degradado_sin_nombre_17);
      }

      .cls-3 {
        fill: url(#Degradado_sin_nombre_17-2);
      }

      .cls-4 {
        fill: url(#Degradado_sin_nombre_17-3);
      }

      .cls-5 {
        fill: url(#Degradado_sin_nombre_17-4);
      }

      .cls-6 {
        fill: url(#Degradado_sin_nombre_17-5);
      }

      .cls-7 {
        fill: url(#Degradado_sin_nombre_17-6);
      }

      .cls-8 {
        fill: url(#Degradado_sin_nombre_17-7);
      }

      .cls-9 {
        fill: url(#Degradado_sin_nombre_17-8);
      }

      .cls-10 {
        fill: url(#Degradado_sin_nombre_17-9);
      }

      .cls-11 {
        fill: url(#Degradado_sin_nombre_17-10);
      }

      .cls-12 {
        fill: url(#Degradado_sin_nombre_17-11);
      }

      .cls-13 {
        fill: url(#Degradado_sin_nombre_17-12);
      }

      .cls-14 {
        fill: url(#Degradado_sin_nombre_17-13);
      }

      .cls-15 {
        fill: url(#Degradado_sin_nombre_17-14);
      }

      .cls-16 {
        fill: url(#Degradado_sin_nombre_17-15);
      }

      .cls-17 {
        fill: url(#Degradado_sin_nombre_17-16);
      }

      .cls-18 {
        fill: url(#Degradado_sin_nombre_17-17);
      }

      .cls-19 {
        fill: url(#Degradado_sin_nombre_17-18);
      }

      .cls-20 {
        fill: url(#Degradado_sin_nombre_17-19);
      }

      .cls-21 {
        fill: url(#Degradado_sin_nombre_17-20);
      }

      .cls-22 {
        fill: url(#Degradado_sin_nombre_17-21);
      }

      .cls-23 {
        fill: url(#Degradado_sin_nombre_17-22);
      }

      .cls-24 {
        fill: url(#Degradado_sin_nombre_17-23);
      }

      .cls-25 {
        fill: url(#Degradado_sin_nombre_17-24);
      }

      .cls-26 {
        fill: url(#Degradado_sin_nombre_17-25);
      }

      .cls-27 {
        fill: url(#Degradado_sin_nombre_17-26);
      }

      .cls-28 {
        fill: url(#Degradado_sin_nombre_17-27);
      }

      .cls-29 {
        fill: url(#Degradado_sin_nombre_17-28);
      }

      .cls-30 {
        fill: url(#Degradado_sin_nombre_17-29);
      }

      .cls-31 {
        fill: url(#Degradado_sin_nombre_17-30);
      }
    </style>
    <linearGradient id="Degradado_sin_nombre_17" data-name="Degradado sin nombre 17" x1="208.21" y1="359.57" x2="227.5" y2="359.57" gradientUnits="userSpaceOnUse">
      <stop offset="0" stop-color="#356eb5"/>
      <stop offset="1" stop-color="#72abdd"/>
    </linearGradient>
    <linearGradient id="Degradado_sin_nombre_17-2" x1="165.3" y1="356" x2="184.87" y2="356" xlink:href="#Degradado_sin_nombre_17"/>
    <linearGradient id="Degradado_sin_nombre_17-3" x1="242.96" y1="355.99" x2="262.6" y2="355.99" xlink:href="#Degradado_sin_nombre_17"/>
    <linearGradient id="Degradado_sin_nombre_17-4" x1="266.08" y1="356.01" x2="282.96" y2="356.01" xlink:href="#Degradado_sin_nombre_17"/>
    <linearGradient id="Degradado_sin_nombre_17-5" x1="287.48" y1="355.99" x2="304.23" y2="355.99" xlink:href="#Degradado_sin_nombre_17"/>
    <linearGradient id="Degradado_sin_nombre_17-6" x1="186.58" y1="356.19" x2="204.92" y2="356.19" xlink:href="#Degradado_sin_nombre_17"/>
    <linearGradient id="Degradado_sin_nombre_17-7" x1="232.37" y1="355.73" x2="241.59" y2="355.73" xlink:href="#Degradado_sin_nombre_17"/>
    <linearGradient id="Degradado_sin_nombre_17-8" x1="319.67" y1="358.29" x2="333.65" y2="358.29" xlink:href="#Degradado_sin_nombre_17"/>
    <linearGradient id="Degradado_sin_nombre_17-9" x1="340.6" y1="361.8" x2="359.11" y2="361.8" xlink:href="#Degradado_sin_nombre_17"/>
    <linearGradient id="Degradado_sin_nombre_17-10" x1="389.29" y1="366.87" x2="400.43" y2="366.87" xlink:href="#Degradado_sin_nombre_17"/>
    <linearGradient id="Degradado_sin_nombre_17-11" x1="430.67" y1="361.65" x2="443.21" y2="361.65" xlink:href="#Degradado_sin_nombre_17"/>
    <linearGradient id="Degradado_sin_nombre_17-12" x1="415.67" y1="361.65" x2="429.13" y2="361.65" xlink:href="#Degradado_sin_nombre_17"/>
    <linearGradient id="Degradado_sin_nombre_17-13" x1="375.09" y1="363.82" x2="387.17" y2="363.82" xlink:href="#Degradado_sin_nombre_17"/>
    <linearGradient id="Degradado_sin_nombre_17-14" x1="361.11" y1="363.99" x2="372.88" y2="363.99" xlink:href="#Degradado_sin_nombre_17"/>
    <linearGradient id="Degradado_sin_nombre_17-15" x1="402.11" y1="363.99" x2="413.93" y2="363.99" xlink:href="#Degradado_sin_nombre_17"/>
    <linearGradient id="Degradado_sin_nombre_17-16" x1="444.85" y1="368.17" x2="447.87" y2="368.17" xlink:href="#Degradado_sin_nombre_17"/>
    <linearGradient id="Degradado_sin_nombre_17-17" x1="445.79" y1="368.17" x2="447.04" y2="368.17" xlink:href="#Degradado_sin_nombre_17"/>
    <linearGradient id="Degradado_sin_nombre_17-18" x1="282.76" y1="212.94" x2="423.27" y2="212.94" xlink:href="#Degradado_sin_nombre_17"/>
    <linearGradient id="Degradado_sin_nombre_17-19" x1="340.47" y1="212.82" x2="365.6" y2="212.82" xlink:href="#Degradado_sin_nombre_17"/>
    <linearGradient id="Degradado_sin_nombre_17-20" x1="197.9" y1="230.94" x2="266.83" y2="230.94" xlink:href="#Degradado_sin_nombre_17"/>
    <linearGradient id="Degradado_sin_nombre_17-21" x1="226.07" y1="231.47" x2="255.24" y2="231.47" xlink:href="#Degradado_sin_nombre_17"/>
    <linearGradient id="Degradado_sin_nombre_17-22" x1="253.09" y1="307.99" x2="296.17" y2="307.99" xlink:href="#Degradado_sin_nombre_17"/>
    <linearGradient id="Degradado_sin_nombre_17-23" x1="290.19" y1="293.9" x2="296.17" y2="293.9" xlink:href="#Degradado_sin_nombre_17"/>
    <linearGradient id="Degradado_sin_nombre_17-24" x1="323.7" y1="303.53" x2="348.85" y2="303.53" xlink:href="#Degradado_sin_nombre_17"/>
    <linearGradient id="Degradado_sin_nombre_17-25" x1="314.39" y1="318.37" x2="348.94" y2="318.37" xlink:href="#Degradado_sin_nombre_17"/>
    <linearGradient id="Degradado_sin_nombre_17-26" x1="330.99" y1="314.81" x2="360.09" y2="314.81" xlink:href="#Degradado_sin_nombre_17"/>
    <linearGradient id="Degradado_sin_nombre_17-27" x1="280.14" y1="431.15" x2="329.65" y2="431.15" xlink:href="#Degradado_sin_nombre_17"/>
    <linearGradient id="Degradado_sin_nombre_17-28" x1="209.91" y1="431.15" x2="259.87" y2="431.15" xlink:href="#Degradado_sin_nombre_17"/>
    <linearGradient id="Degradado_sin_nombre_17-29" x1="346.55" y1="431.15" x2="403.27" y2="431.15" xlink:href="#Degradado_sin_nombre_17"/>
    <linearGradient id="Degradado_sin_nombre_17-30" x1="152.05" y1="549.17" x2="461.13" y2="549.17" xlink:href="#Degradado_sin_nombre_17"/>
  </defs>
  <title>skills</title>
  <g class="cls-1">
    <path class="cls-2" d="M208.21,345.16V374.8h.5V361.48a1.56,1.56,0,0,1,.72.82,8.29,8.29,0,0,0,7.27,5.3c3.79.34,6.9-.91,8.8-4.3a14.55,14.55,0,0,0,.3-14.18,8.35,8.35,0,0,0-8.19-4.79,8.78,8.78,0,0,0-7.93,5c-.22.4-.41.82-.61,1.23l-.34-.06v-5.34Zm6.61.42a8.06,8.06,0,0,1,10.5,4.05,13.91,13.91,0,0,1-.09,12.83,8.12,8.12,0,0,1-8.79,4.52,8.78,8.78,0,0,1-7.32-7,11.82,11.82,0,0,1-.43-3.69C208.69,350.93,211,347,214.82,345.58Z" transform="translate(-152.05 -150.37)"/>
    <path class="cls-3" d="M178.62,367.11a7.67,7.67,0,0,0,5.63-7.35c-.5.05-.52.5-.58.81-1,5.21-6.29,7.41-11.27,6.14-3.8-1-5.73-3.83-6.33-8.85-.17-1.41.19-1.82,1.58-1.81,4.58.06,9.16,0,13.73,0,3.84,0,3.84,0,3.12-3.78a9.38,9.38,0,0,0-17.92-2.21,15.32,15.32,0,0,0-1,9.12C166.86,366.92,172.57,368.8,178.62,367.11Zm-12.45-13.59c.85-6.2,6.35-9.92,12-8a9.56,9.56,0,0,1,6,9c-.07,1.1-.81.88-1.42.89-2.62,0-5.24,0-7.86,0-2.37,0-4.75-.1-7.12,0C166.18,355.5,166,354.92,166.17,353.52Z" transform="translate(-152.05 -150.37)"/>
    <path class="cls-4" d="M245.75,356.08h13.18c4.09,0,4.09,0,3.19-4-1.23-5.57-6.41-8.84-11.69-7.38-4.44,1.22-7.36,5.28-7.46,11-.12,6.79,2.59,12.62,10.88,12,4.41-.34,7.89-3.58,7.88-7.93a3,3,0,0,0-.38.76c-.87,4.65-5.07,7.25-10.48,6.46-4-.59-6.52-3.69-7.06-8.59C243.56,356.09,243.56,356.08,245.75,356.08Zm-2-2.17c.6-5.94,5.4-9.79,11-8.71,4.45.87,6.79,4.83,7.05,9.25.06,1.1-.75.92-1.38.92-2.62,0-5.24,0-7.85,0s-5-.05-7.49,0C243.91,355.43,243.67,355.05,243.79,353.91Z" transform="translate(-152.05 -150.37)"/>
    <path class="cls-5" d="M280.79,365c-2.92,2.52-6.38,2.45-9.85,1.4-3.05-.92-4.19-3.3-4.41-6.28,0-.15,0-.38-.3-.34a6,6,0,0,0,3.39,6.82,12.23,12.23,0,0,0,9.78.16,5.35,5.35,0,0,0,3.56-5.27c0-2.41-1.34-3.91-3.57-4.79-2.78-1.1-5.76-1.53-8.57-2.53-2.32-.82-3.37-2.08-3.41-4.2a4.82,4.82,0,0,1,3.1-4.36c5.19-2.2,9.69-.08,11.32,5.33,0,0,.09,0,.31.18a5.52,5.52,0,0,0-2.38-5.43c-2.85-2-8.17-1.9-10.92.16a4.91,4.91,0,0,0-2,4.8,4.33,4.33,0,0,0,3.09,3.91c1.44.48,2.9.9,4.37,1.31a31.87,31.87,0,0,1,5.24,1.56C282.6,359,283.32,362.85,280.79,365Z" transform="translate(-152.05 -150.37)"/>
    <path class="cls-6" d="M300.65,366a10.73,10.73,0,0,1-7.31.71c-3.53-.82-5.06-2.54-5.53-6.11,0-.28-.08-.56-.12-.84a5.68,5.68,0,0,0,3.24,6.88,12.35,12.35,0,0,0,9.62.16,5.52,5.52,0,0,0,3.67-5.38,5,5,0,0,0-3.65-4.74c-2.85-1.11-5.88-1.57-8.75-2.57a4.18,4.18,0,0,1-3.12-3.85A4.41,4.41,0,0,1,291,346,8,8,0,0,1,303,350.7a1.81,1.81,0,0,0,.3.44,5.24,5.24,0,0,0-3.28-6,11,11,0,0,0-8.2-.2,7,7,0,0,0-1.75,1,5,5,0,0,0-2,4.82,4.29,4.29,0,0,0,3.15,3.86c3,.94,6.09,1.71,9.1,2.7a4.32,4.32,0,0,1,3.21,4.21A4.65,4.65,0,0,1,300.65,366Z" transform="translate(-152.05 -150.37)"/>
    <path class="cls-7" d="M186.58,367l.46.37,8.66-11.21,8.76,11.19.46-.38c-2.65-3.42-5.26-6.87-8-10.25a1.43,1.43,0,0,1,0-2.16c2.15-2.73,4.22-5.52,6.3-8.3.24-.33.81-.61.48-1.23-.75.21-1,.9-1.38,1.4-1.94,2.5-3.89,5-5.73,7.58-.76,1.05-1.15.88-1.81-.05-1.84-2.58-3.74-5.12-5.67-7.64-.36-.47-.54-1.24-1.64-1.28.4.62.68,1.11,1,1.56,1.57,2.1,3.15,4.19,4.73,6.29,2.1,2.77,2.09,2.76-.06,5.52S188.78,364.13,186.58,367Z" transform="translate(-152.05 -150.37)"/>
    <path class="cls-8" d="M240.89,345c.27,0,.64.05.7-.56a8.09,8.09,0,0,0-5.15,1.26c-1.62.93-2.56,2.45-3.38,4.56-.4-2,.07-3.62-.69-5.06v21.95h.5c0-4.39,0-8.77,0-13.16C232.94,348.82,235.87,345.58,240.89,345Z" transform="translate(-152.05 -150.37)"/>
    <path class="cls-9" d="M331.67,350.28c-1.28-2.49-3.23-4.49-4.81-6.75-.19-.27-.29-.13-.42,0-.55.73-1.08,1.47-1.66,2.17a25.79,25.79,0,0,0-3.51,5.32,14.56,14.56,0,0,0-1.43,8.73,15.91,15.91,0,0,0,5.62,9.61,1.22,1.22,0,0,1,.46.88c.06.85.17,1.7.22,2.54,0,.38.21.39.49.38s.54.05.56-.37c0-.58.16-1.16.14-1.74a2.85,2.85,0,0,1,1.11-2.24,15.14,15.14,0,0,0,5.21-11.13A16.14,16.14,0,0,0,331.67,350.28Zm-4.41,18.54c-.21.2-.35.64-.69.48a1,1,0,0,1-.62-1.07c.14-2.36.22-4.72.33-7.08s.23-4.71.35-7.06h.08l.27,6.29.36,7.83C327.35,368.42,327.42,368.67,327.26,368.82Z" transform="translate(-152.05 -150.37)"/>
    <path class="cls-10" d="M343.54,356.39c.06.15.13.28.19.42q2,4.74,3.95,9.48c.44,1.07.89,2.14,1.34,3.21a.54.54,0,0,0,1,0l.18-.43q2.47-6,5-11.94c.07-.16.07-.38.32-.49a2.15,2.15,0,0,1,0,.23q0,5.46.08,10.92c0,.5-.19.89-.76.91-.39,0-.4.25-.4.55s.25.32.48.32h3.66c.26,0,.48,0,.49-.37s-.13-.46-.46-.49c-.75-.06-.9-.25-.9-1q0-6.08,0-12.14c0-.81.17-1,1-1,.34,0,.42-.13.42-.45s-.11-.44-.44-.43c-1,0-1.94,0-2.9,0a.75.75,0,0,0-.84.57q-2.06,5.06-4.13,10.1l-.83,2-.33-.78q-2.33-5.67-4.64-11.33a.68.68,0,0,0-.75-.53c-1,0-2,0-3,0-.31,0-.52,0-.51.42s.13.46.47.46c.7,0,.92.24.91.91q0,6.08-.12,12.14c0,.93-.08,1-1,1.12-.36,0-.37.22-.37.5s.11.37.38.36h3.19c.23,0,.39,0,.36-.31s.11-.53-.31-.55c-.66,0-.82-.46-.82-1,0-3.66,0-7.32,0-11C343.41,356.62,343.32,356.46,343.54,356.39Z" transform="translate(-152.05 -150.37)"/>
    <path class="cls-11" d="M392,375.39a8.4,8.4,0,0,0,5.73-.44,4.42,4.42,0,0,0,2-1.62,3.07,3.07,0,0,0-1.63-4.83,6,6,0,0,0-1.89-.29h-4.9c.4-.56.74-1,1.06-1.46.15-.22.31-.15.5-.08a5.25,5.25,0,0,0,3.58-.12,4.27,4.27,0,0,0,2.5-6.12,9.36,9.36,0,0,0-.89-1.18l1.69.2c.71.08.7.07.72-.63,0-.39-.14-.5-.51-.48s-1,0-1.45,0a11.73,11.73,0,0,1-2.37-.08,6.39,6.39,0,0,0-2.42-.17,4.54,4.54,0,0,0-4,3,3.89,3.89,0,0,0,1.32,4.58c.24.2.17.33,0,.52-.47.62-.93,1.24-1.37,1.87a.92.92,0,0,0,.68,1.53c.09,0,.2,0,.26.09l-.09.13C388.41,371.92,389.1,374.62,392,375.39Zm.09-14.85a2.92,2.92,0,0,1,3.76-.9,3,3,0,0,1,1.53,2.86,2.89,2.89,0,0,1-1.72,2.9,2.78,2.78,0,0,1-3.09-.44A3.63,3.63,0,0,1,392.05,360.54Zm.45,9.18a.82.82,0,0,1,.5-.11h3.08a2,2,0,0,1,2,2.83,2.6,2.6,0,0,1-1.5,1.61,4.9,4.9,0,0,1-3.9.08,2.15,2.15,0,0,1-1.46-2.1A2.57,2.57,0,0,1,392.5,369.72Z" transform="translate(-152.05 -150.37)"/>
    <path class="cls-12" d="M431.13,368.74c-.36,0-.45.11-.46.46s.21.41.51.41c2.24,0,4.49,0,6.73,0a6.32,6.32,0,0,0,3.06-.8,4,4,0,0,0,2.22-4,3.61,3.61,0,0,0-2.71-3.39l-.75-.25.76-.51a3.6,3.6,0,0,0-.15-6,4.92,4.92,0,0,0-2.33-.82c-2.28-.19-4.57,0-6.85-.09-.3,0-.42.1-.41.4s0,.46.39.49a.87.87,0,0,1,.94,1v12.14A.89.89,0,0,1,431.13,368.74Zm9.85-3.66a3.27,3.27,0,0,1-2.7,3.24,18.58,18.58,0,0,1-3.25.06c-.51,0-.81-.41-.82-1,0-.83,0-1.66,0-2.49s0-1.67,0-2.5c0-.22,0-.44.31-.43a33.84,33.84,0,0,1,3.77.08A3,3,0,0,1,441,365.08Zm-6.77-6.94c0-.72,0-1.43,0-2.15s.35-1.06,1.07-1.06a10.39,10.39,0,0,1,2.49.13,2.65,2.65,0,0,1,2,2.86,2.52,2.52,0,0,1-2.19,2.76,24,24,0,0,1-3.06.08c-.32,0-.34-.19-.33-.42Z" transform="translate(-152.05 -150.37)"/>
    <path class="cls-13" d="M416.11,353.7c-.33,0-.44.1-.43.43s0,.44.4.46c.7,0,1,.34,1,1q0,6.07,0,12.14a.86.86,0,0,1-.94,1c-.38,0-.44.15-.45.49s.17.4.46.39H419v0c.92,0,1.86.06,2.78,0a7.36,7.36,0,0,0,6.35-3.86,8.66,8.66,0,0,0,.89-5.23,7.4,7.4,0,0,0-6.75-6.7C420.25,353.61,418.17,353.75,416.11,353.7Zm10.56,5.89a9,9,0,0,1-.39,5.41,5.35,5.35,0,0,1-5.08,3.4h-.87c-.8,0-1.12-.32-1.12-1.14,0-1.87,0-3.75,0-5.63s0-3.67,0-5.51c0-.88.31-1.19,1.17-1.2a8.12,8.12,0,0,1,2.36.22A5.43,5.43,0,0,1,426.67,359.59Z" transform="translate(-152.05 -150.37)"/>
    <path class="cls-14" d="M383.19,369.61h3.66c.26,0,.33-.13.31-.36s.08-.45-.29-.51c-.83-.13-.87-.19-.87-1.05,0-2,0-3.95,0-5.92a3.44,3.44,0,0,0-1.86-3.3,4.82,4.82,0,0,0-5.5,1l-.45.53c0-.06-.08-.08-.09-.11a8.39,8.39,0,0,1-.26-.95c-.1-.74-.46-.78-1.13-.48-.47.21-.9.52-1.36.76a.46.46,0,0,0-.25.53c0,.27.25.2.4.21.58,0,.8.33.8.9,0,2.3,0,4.61,0,6.91,0,.71-.11.86-.81.93-.4,0-.33.27-.35.52s.12.35.38.35H379c.29,0,.42-.07.4-.39s0-.49-.37-.48c-.59,0-.81-.31-.8-.88,0-1.59,0-3.18,0-4.76a4.16,4.16,0,0,1,.68-2.25,3.08,3.08,0,0,1,2.25-1.49,2.32,2.32,0,0,1,2.9,2.52c0,1.95,0,3.91,0,5.86,0,.79-.08.91-.86,1-.33,0-.31.22-.3.43S382.83,369.61,383.19,369.61Z" transform="translate(-152.05 -150.37)"/>
    <path class="cls-15" d="M372.88,364a5.89,5.89,0,1,0-5.93,5.93A5.7,5.7,0,0,0,372.88,364Zm-9.12,2.72a5.84,5.84,0,0,1,.23-5.83,3.61,3.61,0,0,1,6.15.22,5.44,5.44,0,0,1,.67,2.9,5.33,5.33,0,0,1-.69,2.9,3.41,3.41,0,0,1-3.24,1.77A3.31,3.31,0,0,1,363.76,366.71Z" transform="translate(-152.05 -150.37)"/>
    <path class="cls-16" d="M408.1,369.92a5.94,5.94,0,1,0-6-5.94A5.73,5.73,0,0,0,408.1,369.92Zm-3.35-8.59a3.48,3.48,0,0,1,3.89-2,3.75,3.75,0,0,1,3.08,3.22,5.42,5.42,0,0,1,.13,1.34,5.81,5.81,0,0,1-.53,2.69,3.44,3.44,0,0,1-3.23,2.08,3.36,3.36,0,0,1-3.32-2A6.08,6.08,0,0,1,404.75,361.33Z" transform="translate(-152.05 -150.37)"/>
    <path class="cls-17" d="M446.34,369.64a1.42,1.42,0,0,0,1.53-1.45,1.45,1.45,0,0,0-1.5-1.5,1.42,1.42,0,0,0-1.52,1.46A1.4,1.4,0,0,0,446.34,369.64Zm0-2.74a1.27,1.27,0,0,1,.05,2.54,1.27,1.27,0,0,1-.05-2.54Z" transform="translate(-152.05 -150.37)"/>
    <path class="cls-18" d="M445.83,368.84c.62.33.37-.24.45-.48.28.19.28.67.76.49-.24-.29-.48-.56-.17-1,.16-.22-.09-.43-.35-.46a5.81,5.81,0,0,0-.73,0A2.83,2.83,0,0,1,445.83,368.84Z" transform="translate(-152.05 -150.37)"/>
    <path class="cls-19" d="M285.92,221.31c3.89,5.12,9.18,8.38,14.85,11.12a66.54,66.54,0,0,0,10.57,4c.54.16,1,.32.77,1.06A76.08,76.08,0,0,0,310,250.79a36.71,36.71,0,0,0,1.89,15.57c1.45,3.81,3.8,6.85,7.8,8.32a16.13,16.13,0,0,1,2.75.82h.68a2.92,2.92,0,0,1,2.47,0h.9a27.94,27.94,0,0,0,10.63-3.22,62.81,62.81,0,0,0,15.17-10.85c.52-.5.91-.92,1.66-.22a72.6,72.6,0,0,0,9.3,7.56c4.76,3.22,9.76,5.93,15.58,6.73h4.94c.24-.38.68-.28,1-.35a11.85,11.85,0,0,0,7.35-5.15c2.67-3.93,3.65-8.41,4-13a63.78,63.78,0,0,0-1.8-19.46c-.22-.89,0-1.14.81-1.39a72.15,72.15,0,0,0,12.25-4.94c5.05-2.65,9.73-5.76,13.14-10.46,3.55-4.91,3.66-10.23.3-15.25a28.17,28.17,0,0,0-8.21-7.7,65.43,65.43,0,0,0-17.77-7.91c-1-.28-1-.68-.82-1.51a67.57,67.57,0,0,0,1.91-18.9,29.61,29.61,0,0,0-2.31-10.79c-2-4.49-5.16-7.57-10.27-8.17a21.09,21.09,0,0,0-10.29,1.7c-7.28,2.88-13.38,7.56-19,12.87-.72.67-1.15.77-1.87.06a61,61,0,0,0-7.95-6.57c-5.26-3.71-10.79-6.94-17.3-7.82-6.11-.83-11.12.89-14.24,7.09-2.13,4.21-2.67,8.78-2.72,13.4a67,67,0,0,0,2.15,17.07c.19.78.19,1.19-.8,1.48a68.23,68.23,0,0,0-13.84,5.49c-4.6,2.5-8.89,5.41-12,9.77a13,13,0,0,0-2.7,8.6A14.59,14.59,0,0,0,285.92,221.31Zm62.35,35.39A55.25,55.25,0,0,1,335.44,266c-2.74,1.37-5.44,2.93-8.54,3.27s-6,.25-8.08-2.6a15.64,15.64,0,0,1-2.41-6.58,30,30,0,0,1-.47-5.56,68.12,68.12,0,0,1,1.92-15.42c.15-.67.34-.9,1.09-.73,4.56,1,9.18,1.66,13.81,2.2,1.15.13,2.31.22,3.46.29a1.31,1.31,0,0,1,1.14.53,138.37,138.37,0,0,0,11,13.7C349,255.81,348.9,256.1,348.27,256.7Zm33.58-50.82c-2.62-4.92-5.3-9.57-8.26-14.27a94.47,94.47,0,0,1,9.77,1.56c1,.2,2.38,0,2.75.82.3.65-.41,1.8-.72,2.72C384.34,199.74,383.23,202.75,381.85,205.88Zm3.74,23.2c.29.81.54,1.63.82,2.44.16.44.06.72-.42.82a112.77,112.77,0,0,1-12.11,2s-.06,0-.23-.1c2.9-4.64,5.61-9.37,8.26-14.36C383.34,223,384.49,226,385.59,229.08Zm-7.3-17a1.64,1.64,0,0,1,0,1.66,205.43,205.43,0,0,1-11.78,20.52,2.09,2.09,0,0,1-1.84,1c-4,.19-7.92.34-11.61.27-4.1,0-7.91-.06-11.73-.25a1.76,1.76,0,0,1-1.55-.88,170.74,170.74,0,0,1-12-20.78,1.38,1.38,0,0,1,0-1.35,171.48,171.48,0,0,1,12-20.79,1.54,1.54,0,0,1,1.27-.74c5.19-.49,10.39-.42,15.59-.4,2.88,0,5.75.17,8.62.41a1.26,1.26,0,0,1,1.06.67A195.71,195.71,0,0,1,378.29,212.08Zm-54-6.22c-1.66-3.93-3-7.64-4.25-11.4-.2-.6,0-.78.55-.89,3.87-.82,7.75-1.51,11.93-2C329.54,196.26,326.87,200.88,324.26,205.86Zm2.63,19c1.58,2.92,3.31,5.76,5.07,8.57.16.25.47.51.31.79s-.61.19-.91.15c-3.66-.46-7.3-1-10.92-1.77-.65-.13-.64-.4-.47-.93,1.22-3.84,2.6-7.62,4.29-11.57C325.21,221.82,326.06,223.33,326.89,224.86Zm27,26c-.34.4-.61.73-1.13.14-2.68-3.06-5.34-6.12-7.85-9.54,5.56.07,11,.19,16.53-.1a60.77,60.77,0,0,1-3.94,5.22C356.33,248.09,355.08,249.48,353.88,250.91Zm35.52,10.92a12.86,12.86,0,0,1-2.5,5.08c-1.89,2.55-4.49,2.9-7.33,2.42-5.25-.9-9.7-3.58-14-6.6a65.7,65.7,0,0,1-7.48-6.25c-.46-.43-.6-.68-.11-1.23a135.5,135.5,0,0,0,10.86-13.84,1.13,1.13,0,0,1,.92-.53,154.7,154.7,0,0,0,17.79-2.74c.66-.15.78.12.9.6A63.57,63.57,0,0,1,390.3,253,57.1,57.1,0,0,1,389.4,261.83ZM391.92,196c.16-.5.35-.7,1-.51,6.61,2,13,4.56,18.53,8.78a16.38,16.38,0,0,1,5.27,6,5.88,5.88,0,0,1,.61,2.6,9.09,9.09,0,0,1-2.6,5.57c-3.8,4.26-8.69,6.9-13.82,9.16a67.08,67.08,0,0,1-7.56,2.79c-.64.2-.91.13-1.13-.53a133,133,0,0,0-6.59-16.42,1.36,1.36,0,0,1,0-1.27A132.25,132.25,0,0,0,391.92,196ZM357.73,169.8c5.64-5.26,11.61-10,19-12.56a15.63,15.63,0,0,1,5-.84,6.22,6.22,0,0,1,5.83,3.49,21.28,21.28,0,0,1,2.3,8.48c.13,1.3.16,2.61.22,3.67a74.36,74.36,0,0,1-1.88,15c-.18.77-.46.92-1.22.75a124.07,124.07,0,0,0-16.8-2.63,1.86,1.86,0,0,1-1.49-.82,135,135,0,0,0-10.86-13.57C357.54,170.46,357.25,170.24,357.73,169.8Zm-5.21,5.3c.34-.4.6-.58,1.05-.08,2.63,2.92,5.15,5.92,7.49,9.08a1.62,1.62,0,0,1,.13.38c-5.41-.27-10.77-.25-16.3,0a43.45,43.45,0,0,1,3.46-4.53C349.69,178.3,351.13,176.72,352.52,175.1Zm-35.23-12.81c1.65-4.89,4.67-6.59,9.69-5.51,5.54,1.19,10.22,4.08,14.73,7.34,2.31,1.67,4.42,3.58,6.55,5.45.52.45.54.78.08,1.28a128.67,128.67,0,0,0-11,13.69c-.42.59-1,.56-1.6.62-2.41.22-4.81.55-7.22.88-3.14.44-6.25,1.07-9.36,1.7-.69.14-1,.11-1.16-.66a70.46,70.46,0,0,1-2-15A31.09,31.09,0,0,1,317.29,162.29Zm-25.88,44.89c3.79-4.18,8.64-6.73,13.73-8.91a73.68,73.68,0,0,1,7.92-2.8c.71-.22,1-.08,1.2.62a138.24,138.24,0,0,0,6.26,16.2,1.52,1.52,0,0,1,0,1.38,137.69,137.69,0,0,0-6.34,16.53c-.22.73-.57.71-1.14.54a53.59,53.59,0,0,1-20.22-10.56,11.69,11.69,0,0,1-4-7.58A9.45,9.45,0,0,1,291.41,207.18Z" transform="translate(-152.05 -150.37)"/>
    <path class="cls-20" d="M353,200.26a12.57,12.57,0,1,0,12.59,12.57A12.64,12.64,0,0,0,353,200.26Z" transform="translate(-152.05 -150.37)"/>
    <path class="cls-21" d="M199.72,251.62c4.11,2.8,8.19,5.83,13.16,6.88,6,1.27,10.3-2.22,10.35-8.36.09-10.57,0-21.15,0-31.73,0-.57.21-1.34-.42-1.61a6.53,6.53,0,0,0-4.05-.14c-1.21.29-.72,1.55-.72,2.39q0,15,0,29.95c0,1.79-.41,3.26-2.14,4.07s-3.36.28-4.89-.55c-2.19-1.2-4.29-2.54-6.5-3.71A2.53,2.53,0,0,1,203,246.2q.09-15.18,0-30.35a2.79,2.79,0,0,1,1.66-2.77q13.17-7.5,26.27-15.13a2.46,2.46,0,0,1,2.86,0q13.18,7.69,26.44,15.25a2.63,2.63,0,0,1,1.53,2.65q-.06,15.07,0,30.15a3,3,0,0,1-1.75,2.94c-7.87,4.47-15.82,8.83-23.49,13.64-3.15,2-5.59,2.19-8.37-.18-2.27-1.94-4.69-2.73-7.36-.65-.48.37-1.51.19-1.51,1s.89.87,1.44,1.2c3.17,1.94,6.36,3.87,9.53,5.79h3.95c9.59-5.54,19.17-11.1,28.79-16.6,2.45-1.4,3.84-3.32,3.84-6.16q0-16,0-31.93a6.18,6.18,0,0,0-3.21-5.71q-14.07-8.13-28.14-16.23a5.94,5.94,0,0,0-6.2,0Q215,201.2,200.79,209.46a5.54,5.54,0,0,0-2.88,5.06q0,16.46,0,32.91A4.83,4.83,0,0,0,199.72,251.62Z" transform="translate(-152.05 -150.37)"/>
    <path class="cls-22" d="M248.08,240.84a7.71,7.71,0,0,1-2.17.87,25.08,25.08,0,0,1-8.81.23c-3-.33-5.22-1.72-5.66-5-.11-.8-.64-1.08-1.39-1.08s-1.58,0-2.37,0c-1.31-.05-1.72.57-1.59,1.83a9.11,9.11,0,0,0,5.86,8c2.89,1.24,6,1.52,9.61,1.6,3.28-.08,7.06-.43,10.31-2.79,3-2.18,3.71-5.27,3.23-8.74-.42-3.05-2.49-4.61-5.2-5.56a35.4,35.4,0,0,0-6.51-1.45,57.11,57.11,0,0,1-8.7-1.58c-1-.31-1.86-.75-2-1.91a3.21,3.21,0,0,1,1.22-3.14,5.42,5.42,0,0,1,1.95-.9,19.66,19.66,0,0,1,6.07-.35c3.25.11,6,1.07,6.82,4.7a1.34,1.34,0,0,0,1.62,1.08c1.2-.11,2.52.48,3.58-.49a1.29,1.29,0,0,0,.17-.92c-.41-3.56-2-6.33-5.35-7.92a16.43,16.43,0,0,0-5.7-1.42c-4.3-.36-8.56-.28-12.36,2.16-3,1.91-4,4.78-3.59,8.17.35,3.1,2.31,4.89,5.08,5.93a28.64,28.64,0,0,0,6.34,1.34c3,.37,6,.53,8.89,1.56,1.08.38,2.07.87,2.18,2.23A3.49,3.49,0,0,1,248.08,240.84Z" transform="translate(-152.05 -150.37)"/>
    <path class="cls-23" d="M253.12,290.76q0,9.71,0,19.42a1.21,1.21,0,0,0,.64,1.12l3.68,2.1a1.19,1.19,0,0,0,1.85-1.08c0-.91,0-1.81,0-2.72,0-2.77,0-5.53,0-8.3a1.22,1.22,0,0,1,.71-1.22,1.24,1.24,0,0,1,1.23.12c2.15,1.24,4.31,2.47,6.46,3.72a1.48,1.48,0,0,0,1.67,0c2.14-1.25,4.29-2.48,6.43-3.71a1.39,1.39,0,0,1,.81-.23,1.22,1.22,0,0,1,1.12,1.37c0,1.9,0,3.81,0,5.71a.58.58,0,0,1-.35.58l-8.52,4.88c-.16.09-.32.16-.32.42q0,3,0,6a1.3,1.3,0,0,0,.74,1.21l10.83,6.19a1.38,1.38,0,0,0,1.49,0q6.94-4,13.9-8a1.35,1.35,0,0,0,.72-1.26V304.86a1.2,1.2,0,0,0-1.91-1.12c-1.15.64-2.28,1.32-3.43,1.95a1.47,1.47,0,0,0-.82,1.42c0,2.18,0,4.36,0,6.54a1.29,1.29,0,0,1-.68,1.21l-7.81,4.48a1.33,1.33,0,0,1-1.42,0c-1.15-.66-2.3-1.32-3.46-2a1.23,1.23,0,0,1,0-2.28c2.13-1.22,4.24-2.45,6.38-3.66a1.53,1.53,0,0,0,.85-1.48c0-3.18,0-6.36,0-9.55v-9.62a1.39,1.39,0,0,0-.31-1,1.22,1.22,0,0,0-1.63-.14q-6.3,3.62-12.59,7.23a1.48,1.48,0,0,1-1.64,0l-12.6-7.23A1.21,1.21,0,0,0,253.12,290.76Z" transform="translate(-152.05 -150.37)"/>
    <path class="cls-24" d="M290.19,297.11a1.19,1.19,0,0,0,1.87,1.05l3.47-2.08a1.23,1.23,0,0,0,.64-1.13c0-1.41,0-2.82,0-4.23a1.2,1.2,0,0,0-1.89-1.06l-3.44,2.06a1.23,1.23,0,0,0-.65,1.15c0,.71,0,1.42,0,2.12v2.12Z" transform="translate(-152.05 -150.37)"/>
    <path class="cls-25" d="M348.54,298a15.43,15.43,0,0,0-5.06-9.12,10.92,10.92,0,0,0-6.43-2.57,10.45,10.45,0,0,0-5.69,1.62c-4.82,2.79-6.84,7.33-7.48,12.56a23.57,23.57,0,0,0,3,14.63,1.86,1.86,0,0,1,.17,1.63,3.07,3.07,0,0,0,2.51,4,3.13,3.13,0,0,0,3.59-2.87,3,3,0,0,0-3-3.3,1.17,1.17,0,0,1-1.22-.74,23,23,0,0,1-2.75-11,19.52,19.52,0,0,1,.82-5.39c1-3,2.45-5.78,5.51-7.29,5-2.44,9.22-1.07,11.84,3.8a18.48,18.48,0,0,1,1.76,5.05c.06.26,0,.6.33.7.71.21,1.5.8,2.12.44.46-.26.09-1.14,0-1.74C348.56,298.25,348.57,298.11,348.54,298Z" transform="translate(-152.05 -150.37)"/>
    <path class="cls-26" d="M345.37,318a3.28,3.28,0,0,1,1.68-1.68,3,3,0,0,0,1.53-4.22,3.12,3.12,0,0,0-4.23-1.36,3.05,3.05,0,0,0-1.23,4.34,1.47,1.47,0,0,1,0,1.77,21.68,21.68,0,0,1-9.83,8.56,15.51,15.51,0,0,1-9.74,1.37,8.35,8.35,0,0,1-6.7-7.75,10.27,10.27,0,0,1,3.73-8.29,2.53,2.53,0,0,0,.68-3.14c-.21-.66-.41-.54-.83-.21a16.39,16.39,0,0,0-4.34,5.07c-1.9,3.61-2.33,7.34-.53,11.1,2.15,4.48,6.14,5.82,10.74,5.93a13.08,13.08,0,0,0,2.17,0C335.8,328.23,341.61,324.63,345.37,318Z" transform="translate(-152.05 -150.37)"/>
    <path class="cls-27" d="M352.32,326.61a11.92,11.92,0,0,1-8.48-.19,1.42,1.42,0,0,0-1.67.32,9.66,9.66,0,0,1-1.05.84c-.48.35-.38.54.13.75a15.44,15.44,0,0,0,11.77.39c5.72-2.21,8.23-7.27,6.56-13.16a17,17,0,0,0-6.08-8.66,23.19,23.19,0,0,0-15.23-5.2,2.15,2.15,0,0,1-1.88-.77,3.06,3.06,0,0,0-4.51-.07,3.12,3.12,0,0,0,.16,4.51,3,3,0,0,0,4.48-.39,2,2,0,0,1,1.93-.88,22.11,22.11,0,0,1,14.28,5.45c2.82,2.46,4.63,5.52,4.88,8.47C357.61,322.25,355.45,325.4,352.32,326.61Z" transform="translate(-152.05 -150.37)"/>
    <path class="cls-28" d="M280.92,414.89c.21,2.62.39,5.24.6,7.85.23,3.06.49,6.11.73,9.17.21,2.61.39,5.23.6,7.84.24,3.06.49,6.12.73,9.17.07.87.14,1.73.18,2.6a2,2,0,0,0,1.63,2c3.38,1,6.76,2.14,10.13,3.21,2.8.88,5.59,1.76,8.38,2.66a3.11,3.11,0,0,0,2,0q9.19-2.94,18.4-5.85c1.34-.42,1.65-.81,1.76-2.2.27-3.55.53-7.11.81-10.66.31-4,.65-8,1-12,.28-3.56.53-7.11.81-10.67q.48-6,1-12c0-.24,0-.48,0-.72.08-1.49-.09-1.78-1.43-2.38H281.59c-1.34.6-1.53.89-1.42,2.38C280.41,408.41,280.67,411.65,280.92,414.89Zm8.73-1.76h30.41c.78,0,.76,0,.69.78-.14,1.6-.29,3.2-.37,4.8,0,.56-.23.66-.73.66-7.54,0-15.09,0-22.64,0-.69,0-.7,0-.63.69.18,1.82.39,3.64.56,5.46.05.5.35.45.69.45H319c.85,0,.82,0,.74.86-.18,2.08-.33,4.16-.5,6.24l-.63,8.07c-.09,1.16-.19,2.32-.25,3.48a.59.59,0,0,1-.47.63l-12.67,4a1.05,1.05,0,0,1-.7,0l-12.55-4c-.28-.08-.49-.16-.52-.53-.22-3-.44-6.08-.69-9.12,0-.4,0-.55.48-.55,2,0,4,0,6.05,0,.4,0,.55.1.54.52,0,1.3,0,2.59,0,3.89,0,.34.06.52.44.62,2.16.56,4.31,1.15,6.46,1.74a1.4,1.4,0,0,0,.76,0c2.12-.58,4.24-1.17,6.36-1.73.34-.09.48-.22.51-.58.15-2.27.32-4.53.52-6.8,0-.48-.2-.48-.55-.48h-21c-.89,0-.79.1-.86-.78-.27-3.54-.56-7.07-.84-10.61-.19-2.39-.36-4.79-.57-7.18C289,413.08,289.29,413.13,289.65,413.13Z" transform="translate(-152.05 -150.37)"/>
    <path class="cls-29" d="M210.18,406c.1,1.17.21,2.34.31,3.5l.24,2.73c.11,1.16.21,2.32.32,3.47l.24,2.73c.1,1.16.21,2.32.31,3.48l.24,2.73c.1,1.16.21,2.33.31,3.5.09.91.16,1.82.25,2.73.1,1.15.2,2.31.31,3.47l.24,2.73c.1,1.16.21,2.33.31,3.5l.24,2.67c.11,1.18.21,2.35.32,3.53l.24,2.73c.1,1.16.2,2.31.31,3.47,0,.22,0,.44.06.66s.07.22.22.26l3.54,1,16.31,4.53c.09,0,.2,0,.27.12h.16a.58.58,0,0,1,.28-.12L254.79,454l.37-.1a.22.22,0,0,0,.2-.23c0-.43.07-.86.11-1.29.13-1.42.25-2.83.38-4.25s.23-2.68.35-4,.25-2.68.37-4c.1-1.14.19-2.28.3-3.41l.36-4,.3-3.39c.1-1.14.21-2.28.31-3.42l.24-2.75c.1-1.15.21-2.3.31-3.45l.24-2.67c.1-1.18.21-2.35.32-3.53.08-.89.15-1.78.23-2.67.11-1.18.21-2.36.32-3.53l.24-2.73c0-.5.08-1,.13-1.49,0-.13,0-.19-.15-.18H210.3c-.43,0-.42-.1-.37.42C210,404.15,210.1,405.07,210.18,406Zm9.36,7.23H250.4c.11,0,.15,0,.14.15s0,.27,0,.41c-.09.93-.16,1.85-.25,2.78-.1,1.19-.21,2.37-.32,3.56-.08.89-.15,1.78-.23,2.67-.11,1.16-.21,2.31-.32,3.47l-.24,2.7c-.1,1.15-.2,2.3-.31,3.45l-.24,2.75c-.1,1.17-.21,2.34-.31,3.5l-.24,2.7c-.11,1.16-.21,2.32-.32,3.48,0,.26,0,.26-.26.33l-9.38,2.6-3.2.89-10.41-2.89-2.21-.61a.27.27,0,0,1-.24-.27q-.24-2.85-.5-5.68c-.1-1.21-.21-2.42-.32-3.64a.86.86,0,0,1,0-.16c0-.1,0-.13.13-.13h5.84a.57.57,0,0,0,.13,0c.12,0,.16.06.17.17,0,.61.11,1.21.16,1.82l.24,2.73c0,.28,0,.28.31.36l6.43,1.73a.57.57,0,0,0,.25,0h0v0h0v0a.53.53,0,0,0,.22,0l2.77-.75,3.74-1c.25-.07.24,0,.27-.32s.08-.85.11-1.27c.11-1.18.21-2.35.32-3.52.08-.92.16-1.84.25-2.76,0-.38,0-.31-.28-.31h-7.39a1.45,1.45,0,0,0-.36,0H221.27c-.38,0-.38,0-.41-.37-.17-1.85-.33-3.71-.5-5.56,0-.1,0-.2,0-.3l.36,0h22.23c.2,0,.21,0,.22-.19.1-1,.19-2,.28-3.06s.16-1.88.25-2.81c0-.44,0-.35-.31-.35H220.1c-.32,0-.33,0-.35-.31-.09-.94-.18-1.87-.26-2.81s-.17-1.86-.26-2.78C219.19,413.15,219.2,413.23,219.54,413.23Zm.78,12.69a.36.36,0,0,1,.28-.08A.36.36,0,0,0,220.32,425.92Z" transform="translate(-152.05 -150.37)"/>
    <path class="cls-30" d="M403.27,402.79H346.55v56.73h56.72Zm-25.66,44.6a9.73,9.73,0,0,1-.35,2.62,6.8,6.8,0,0,1-6.33,5.14,10.15,10.15,0,0,1-5.74-.94,8.28,8.28,0,0,1-3.42-3.49c-.19-.34-.11-.5.21-.69,1.2-.71,2.4-1.43,3.58-2.17.31-.19.47-.17.64.16a10.45,10.45,0,0,0,.74,1.13,3,3,0,0,0,3,1.21c1.49-.17,2.24-1.08,2.26-2.79,0-2.22,0-4.45,0-6.67v-2.3c0-3,0-6,0-9,0-.5.11-.69.65-.68,1.42,0,2.83,0,4.25,0,.41,0,.55.14.55.54C377.62,435.42,377.63,441.4,377.61,447.39ZM392.4,455c-.76.12-1.52.14-2.15.2-3.49-.07-6.45-1-8.67-3.7a12.17,12.17,0,0,1-1-1.41c-.19-.31-.13-.47.18-.65q1.8-1,3.57-2.07c.36-.22.52-.14.73.19a5.49,5.49,0,0,0,3.94,2.73,5.15,5.15,0,0,0,3.17-.38,2.37,2.37,0,0,0,.41-4.13,15.73,15.73,0,0,0-3.52-1.78,22.28,22.28,0,0,1-4-2.07,7.58,7.58,0,0,1-2.36-9.52,7.1,7.1,0,0,1,6-3.78,9.18,9.18,0,0,1,5.71,1.05,8.48,8.48,0,0,1,2.77,2.85c.15.25.15.4-.12.57-1.2.76-2.39,1.52-3.58,2.3-.24.16-.36.11-.51-.12a6.61,6.61,0,0,0-.75-1,3.26,3.26,0,0,0-3.42-.84,2,2,0,0,0-1.51,1.65,2.29,2.29,0,0,0,.77,2.29,7.85,7.85,0,0,0,2,1.14,45.53,45.53,0,0,1,4.58,2.16,7.72,7.72,0,0,1,4.06,4.83C400,450.33,397.28,454.29,392.4,455Z" transform="translate(-152.05 -150.37)"/>
    <path class="cls-31" d="M458.77,568a31.52,31.52,0,0,0-3-1.56c-30.75-14.71-62.86-18.11-96.17-11.58-4.35.85-8.66,1.87-13.69,3a17.8,17.8,0,0,1,1.5-1.06c20.08-10.06,41.19-16.22,63.75-16.9a136.67,136.67,0,0,1,38.51,4.45c2.46.64,4.51.37,5.88-1.91,1.67-2.79.12-5.76-3.54-6.73a140.56,140.56,0,0,0-35.09-4.76c-25.49-.23-49.47,5.94-72.25,17.17-.94.47-1.78,1.41-3.34,1a153.06,153.06,0,0,1,19.65-14c24-14.51,50-21.54,78.18-20.42,3.3.13,5.38-1.67,5.41-4.42,0-2.58-1.92-4.35-5.05-4.51a131.62,131.62,0,0,0-19.15.44c-31,2.87-58.17,14.85-82.41,34l-4,3.15A140.9,140.9,0,0,1,361.61,515a136.3,136.3,0,0,1,60.12-26.84c3.8-.68,5.45-2.57,5-5.48-.42-2.74-2.76-4-6.28-3.4a141.81,141.81,0,0,0-35.64,11.21C353.82,505,330.74,528,313.2,557c-2.27,3.73-4.31,7.6-6.6,11.65-2.3-4.07-4.35-7.94-6.62-11.68-18.68-30.78-43.47-54.75-77-68.88a145.33,145.33,0,0,0-30.78-8.95,4.71,4.71,0,0,0-4.82,1.55,4.24,4.24,0,0,0-.61,4.51c.83,2.14,2.76,2.62,4.76,3C223.72,494,250.18,510,272,534c2.64,2.92,5.09,6,7.63,9-6.08-4.28-11.91-8.72-18.08-12.68-26.68-17.12-55.74-25.79-87.56-24.59-3.39.12-5.37,1.84-5.35,4.49,0,2.84,2.15,4.59,5.66,4.45,28.25-1.12,54.31,6.08,78.4,20.68a145.7,145.7,0,0,1,19.21,13.73c-.65.13-.76.19-.82.16-.86-.38-1.72-.75-2.55-1.17-27.44-13.49-56.26-19.66-86.86-16.27a136.19,136.19,0,0,0-21,4c-2.78.76-4.1,3-3.45,5.55s3,3.66,5.76,3.06c.74-.16,1.47-.35,2.2-.53a135,135,0,0,1,29.25-4c25.17-.67,48.73,5.57,71.1,16.78.41.21,1,.29,1,1-.17,0-.27.11-.35.09l-2.19-.52c-28.84-7.4-57.59-7.68-86.2,1.19a135.43,135.43,0,0,0-22.91,9.38c-2.75,1.45-3.55,3.91-2.24,6.34,1.22,2.25,3.64,2.87,6.35,1.62.43-.2.84-.43,1.26-.64a135.29,135.29,0,0,1,48.47-13.88c26.09-2.35,51.07,2.36,75.25,12,.61.24,1.55.17,1.77,1.41h-80c-8.65,0-17.29,0-25.94,0-1.92,0-3.64.39-4.56,2.17-3.26,6.25-6.52,12.49-9.59,18.83a4.27,4.27,0,0,0,3.67,6.14c1.4.14,2.82.06,4.23.06q51.73,0,103.48-.06a4.62,4.62,0,0,1,4.75,2.78c5.37,9.67,13.74,14.8,24.81,14.8s19.45-5.11,24.82-14.79a4.62,4.62,0,0,1,4.76-2.79q52.86.13,105.73,0c5.71,0,7.42-2.84,4.82-8s-5.24-10-7.63-15.08c-1.42-3-3.43-4.19-6.82-4.18q-51,.15-102.07,0c-.92,0-1.94.3-2.89-.35.29-.27.41-.44.57-.51.69-.3,1.39-.56,2.09-.84a168.37,168.37,0,0,1,45.76-11.38c25.72-2.61,50.39,1.15,73.91,12,1.71.79,3.36,1.69,5.09,2.43a4.46,4.46,0,0,0,4-7.94Zm-31.89,15.47c3.56,0,5.62.92,6.67,4.25a12.41,12.41,0,0,0,1.43,2.75c1.29,2,.52,2.42-1.57,2.41-17.19,0-34.38,0-51.57,0H331.11c-3.91,0-4.87.7-6.17,4.38a19.34,19.34,0,0,1-36.64.11c-1.38-3.86-2.26-4.49-6.38-4.49H180.46c-3.43,0-3.09.11-2-3.05,1.8-5,4.87-6.4,10.25-6.38Q307.81,583.73,426.88,583.46Z" transform="translate(-152.05 -150.37)"/>
  </g>
</svg>
